<svg width="200" height="48" viewBox="0 0 200 48" fill="none" xmlns="http://www.w3.org/2000/svg">
  <!-- Shield icon with tech elements -->
  <path d="M24 4L8 12V22C8 31 14.5 39.5 24 42C33.5 39.5 40 31 40 22V12L24 4Z" fill="#0066FF"/>
  <path d="M24 8L12 14V22C12 29 17 36 24 38C31 36 36 29 36 22V14L24 8Z" fill="#00D4AA"/>

  <!-- Circuit lines inside shield -->
  <line x1="24" y1="16" x2="24" y2="32" stroke="white" stroke-width="1.5"/>
  <line x1="18" y1="22" x2="30" y2="22" stroke="white" stroke-width="1.5"/>
  <circle cx="24" cy="16" r="2" fill="white"/>
  <circle cx="24" cy="32" r="2" fill="white"/>
  <circle cx="18" cy="22" r="2" fill="white"/>
  <circle cx="30" cy="22" r="2" fill="white"/>

  <!-- Company name -->
  <text x="52" y="20" font-family="Arial, sans-serif" font-size="14" font-weight="700" fill="#0F172A">PATRIOT</text>
  <text x="52" y="34" font-family="Arial, sans-serif" font-size="10" font-weight="500" fill="#64748B">TECH SYSTEMS</text>
</svg>
